<?xml version="1.0" encoding="UTF-8"?>
<svg version="1.1" xmlns="http://www.w3.org/2000/svg" width="1604" height="450">
<path d="M0 0 C32.67 0 65.34 0 99 0 C99 8.25 99 16.5 99 25 C75.9 25 52.8 25 29 25 C29 42.82 29 60.64 29 79 C50.78 79 72.56 79 95 79 C95 86.92 95 94.84 95 103 C73.22 103 51.44 103 29 103 C29 123.79 29 144.58 29 166 C53.75 166 78.5 166 104 166 C104 173.92 104 181.84 104 190 C69.68 190 35.36 190 0 190 C0 127.3 0 64.6 0 0 Z " fill="#000000" transform="translate(132,123)"/>
<path d="M0 0 C-2.31 7.92 -4.62 15.84 -7 24 C-16 21 -16 21 -20 19.4375 C-32.60745228 15.29379191 -47.79734241 14.16602082 -59.9375 20.125 C-66.04039979 23.97296807 -69.76756466 28.9205921 -71.5 35.9375 C-72.66773471 43.89269271 -70.68781395 50.30283529 -65.93432617 56.74780273 C-58.73233285 65.13331181 -47.66734456 69.24371656 -37.8215332 73.72412109 C-21.35733233 81.25444389 -3.80922416 91.27017061 3.15234375 108.921875 C8.6968081 124.78575164 8.50425666 140.82308072 1.375 156.25 C-6.57990274 170.9284569 -19.26757658 179.22120927 -35 184 C-42.97027213 186.11326072 -50.78407844 186.38577851 -59 186.375 C-60.27786377 186.37338867 -61.55572754 186.37177734 -62.87231445 186.37011719 C-77.41897944 186.18271462 -94.19268059 184.34525505 -106 175 C-103.95838673 166.5537319 -101.92608728 158.19304439 -99 150 C-98.18660156 150.38671875 -97.37320312 150.7734375 -96.53515625 151.171875 C-79.72206115 158.81247165 -60.60635131 163.75976657 -42.3125 158.4375 C-35.15790968 155.58567029 -28.76792391 150.77974201 -25.62890625 143.55859375 C-23.49208812 134.86532744 -23.64483941 124.939257 -28.3515625 117.1640625 C-34.87118765 108.60512332 -43.35935131 104.46327231 -52.86523438 100.00439453 C-73.72548227 90.18977195 -92.09172627 80.37158711 -101 58 C-104.78620542 45.13745544 -102.53064346 30.00906047 -96.64453125 18.3046875 C-89.85689292 6.11241489 -79.01672761 -1.88456103 -65.8125 -6.375 C-45.77078855 -11.75145912 -17.42124132 -13.06593099 0 0 Z " fill="#000000" transform="translate(1203,130)"/>
<path d="M0 0 C-2.31 7.92 -4.62 15.84 -7 24 C-16 21 -16 21 -20 19.4375 C-32.60745228 15.29379191 -47.79734241 14.16602082 -59.9375 20.125 C-66.04039979 23.97296807 -69.76756466 28.9205921 -71.5 35.9375 C-72.66773471 43.89269271 -70.68781395 50.30283529 -65.93432617 56.74780273 C-58.73233285 65.13331181 -47.66734456 69.24371656 -37.8215332 73.72412109 C-21.35733233 81.25444389 -3.80922416 91.27017061 3.15234375 108.921875 C8.6968081 124.78575164 8.50425666 140.82308072 1.375 156.25 C-6.57990274 170.9284569 -19.26757658 179.22120927 -35 184 C-42.97027213 186.11326072 -50.78407844 186.38577851 -59 186.375 C-60.27786377 186.37338867 -61.55572754 186.37177734 -62.87231445 186.37011719 C-77.41897944 186.18271462 -94.19268059 184.34525505 -106 175 C-103.95838673 166.5537319 -101.92608728 158.19304439 -99 150 C-98.18660156 150.38671875 -97.37320313 150.7734375 -96.53515625 151.171875 C-79.72206115 158.81247165 -60.60635131 163.75976657 -42.3125 158.4375 C-35.15790968 155.58567029 -28.76792391 150.77974201 -25.62890625 143.55859375 C-23.49208812 134.86532744 -23.64483941 124.939257 -28.3515625 117.1640625 C-34.87118765 108.60512332 -43.35935131 104.46327231 -52.86523438 100.00439453 C-73.72548227 90.18977195 -92.09172627 80.37158711 -101 58 C-104.78620542 45.13745544 -102.53064346 30.00906047 -96.64453125 18.3046875 C-89.85689292 6.11241489 -79.01672761 -1.88456103 -65.8125 -6.375 C-45.77078855 -11.75145912 -17.42124132 -13.06593099 0 0 Z " fill="#000000" transform="translate(690,130)"/>
<path d="M0 0 C4.15332179 2.33624351 5.58033376 4.54347807 7 9 C7.26069641 12.30966187 7.26069641 12.30966187 7.2746582 16.12255859 C7.27976913 16.82095856 7.28488007 17.51935852 7.29014587 18.23892212 C7.30401256 20.54218192 7.3030854 22.84514095 7.30078125 25.1484375 C7.30467367 26.76445627 7.30900946 28.38047402 7.31376648 29.99649048 C7.3212253 33.38750516 7.32094272 36.77841577 7.31567383 40.16943359 C7.30992128 44.47375323 7.32670868 48.77763663 7.3500185 53.08188438 C7.3649071 56.42463595 7.36560654 59.7672866 7.36250877 63.11006546 C7.36301582 64.69417805 7.36813502 66.27829724 7.37832069 67.86237717 C7.48469196 86.74103066 4.93791488 103.56736412 -8.7265625 117.75390625 C-9.47679687 118.49511719 -10.22703125 119.23632812 -11 120 C-11.62648438 120.64839844 -12.25296875 121.29679687 -12.8984375 121.96484375 C-25.8716299 134.47275288 -42.27032601 135.31631389 -59.203125 135.30078125 C-60.9719045 135.30467351 -62.74068307 135.30900926 -64.50946045 135.31376648 C-68.2009994 135.32119691 -71.89244262 135.32095885 -75.58398438 135.31567383 C-80.31065356 135.30985808 -85.03693357 135.32687608 -89.76353836 135.3500185 C-93.40954877 135.36475075 -97.05546504 135.36562867 -100.70149994 135.36250877 C-102.4445956 135.36302141 -104.18769661 135.36824832 -105.93076324 135.37832069 C-108.36458267 135.39066941 -110.79763797 135.38390523 -113.23144531 135.37231445 C-113.94738861 135.37995819 -114.66333191 135.38760193 -115.40097046 135.39547729 C-119.77825703 135.34944477 -122.50526408 134.65643939 -126 132 C-128.33772514 129.09799637 -128.96474659 127.27699106 -129.4375 123.5625 C-128.91894272 119.33996212 -127.66649168 117.2759755 -125 114 C-121.28520722 111.52347148 -119.38676301 111.74343702 -114.94921875 111.72875977 C-113.87778877 111.72091965 -113.87778877 111.72091965 -112.78471375 111.71292114 C-111.23294268 111.70268004 -109.68113724 111.69690054 -108.1293335 111.69503975 C-105.66434824 111.6913718 -103.19976384 111.67462913 -100.73486328 111.65428162 C-93.72615059 111.59894195 -86.71737666 111.5683398 -79.70849609 111.54370117 C-75.41901739 111.52771462 -71.1298177 111.49737026 -66.84048462 111.45893669 C-65.21402987 111.44737204 -63.58752492 111.4413571 -61.96102905 111.44125557 C-49.21739804 111.44017266 -36.96995151 110.93991754 -27 102 C-20.83286219 94.71279121 -17.52293189 86.67310696 -17.63110352 77.11865234 C-17.62733704 76.37609695 -17.62357056 75.63354156 -17.61968994 74.8684845 C-17.61330069 73.2714908 -17.6135465 71.674459 -17.61987495 70.07746506 C-17.62905048 67.5461486 -17.61869014 65.01556254 -17.60325623 62.48428345 C-17.56332375 55.29324339 -17.56195718 48.10226539 -17.56420898 40.91113281 C-17.56426014 36.49917604 -17.54507191 32.08761739 -17.51487541 27.67576981 C-17.50407969 25.18839765 -17.5161589 22.70179412 -17.52870178 20.21444702 C-17.51979574 18.68380989 -17.50972079 17.15317896 -17.49829102 15.62255859 C-17.51290627 14.59375832 -17.51290627 14.59375832 -17.52781677 13.54417419 C-17.45440274 8.60323978 -16.09464134 5.80105757 -13 2 C-8.75259201 -0.83160532 -4.98653957 -0.64522317 0 0 Z " fill="#000000" transform="translate(1565,276)"/>
<path d="M0 0 C0.77280807 -0.00511093 1.54561615 -0.01022186 2.34184265 -0.01548767 C4.9024527 -0.0294098 7.46279403 -0.02842356 10.0234375 -0.02612305 C11.8088389 -0.03001136 13.59423938 -0.03434631 15.37963867 -0.03910828 C19.12893666 -0.04657816 22.87814053 -0.04627571 26.62744141 -0.04101562 C31.40750053 -0.03525006 36.1871685 -0.05207725 40.96716309 -0.0753603 C44.65975154 -0.09017999 48.35224791 -0.09095769 52.04486084 -0.08785057 C53.80532601 -0.08836065 55.56579677 -0.09353898 57.32623291 -0.10366249 C75.51454796 -0.19533834 90.62005455 2.98638099 104.21875 16.0637207 C105.29769531 17.15813477 105.29769531 17.15813477 106.3984375 18.2746582 C106.97335937 18.83926758 107.54828125 19.40387695 108.140625 19.9855957 C120.95888693 33.60084802 121.87576531 52.09073371 121.796875 69.71606445 C121.79890263 71.33935171 121.80181976 72.96263806 121.80557251 74.58592224 C121.80995218 77.95499515 121.80369994 81.32382661 121.78955078 84.69287109 C121.77233639 89.00005485 121.78240422 93.30668264 121.80026817 97.61384678 C121.81111916 100.95194175 121.8076558 104.2899051 121.7998848 107.62800407 C121.79789284 109.21675624 121.80030655 110.80552058 121.80732346 112.3942585 C121.81497384 114.60935298 121.80329044 116.82354662 121.78662109 119.03857422 C121.78423431 120.29460953 121.78184753 121.55064484 121.77938843 122.84474182 C121.27151945 127.41737314 119.85379135 130.81930435 116.5859375 134.0871582 C112.31118016 136.40774076 109.44406934 136.5811365 104.7734375 135.2121582 C100.83418783 132.9507371 99.55264524 131.24548044 97.3984375 127.2746582 C97.03050783 124.59970638 96.87189155 122.34630431 96.91601562 119.68383789 C96.91210312 118.94799973 96.90819061 118.21216156 96.90415955 117.45402527 C96.89820656 115.86464032 96.90131473 114.27520058 96.9125824 112.68584442 C96.92992568 110.16187062 96.92229182 107.63903424 96.9083252 105.11505127 C96.87875341 98.84525437 96.89182094 92.57567788 96.90350342 86.30584717 C96.91174382 81.00631314 96.90361277 75.7072777 96.87437439 70.40781403 C96.86733571 67.93608105 96.88388958 65.46525283 96.90148926 62.99359131 C96.89943863 51.94434338 95.31739172 42.92318059 88.22265625 34.0949707 C78.33769527 24.23117666 66.01626182 23.98864082 52.92576027 24.00026321 C50.49947057 24.00123818 48.07361216 23.98817576 45.64738464 23.97128296 C38.7559225 23.92528262 31.86451116 23.90038998 24.97290039 23.89379883 C20.74130239 23.88877836 16.51016469 23.86451458 12.27872276 23.82847214 C10.6732529 23.81869892 9.06771959 23.81632865 7.46222878 23.82164383 C5.21756403 23.82873295 2.97427141 23.8114008 0.72973633 23.78881836 C-0.54439621 23.78596832 -1.81852875 23.78311829 -3.13127136 23.78018188 C-7.76962169 23.10450488 -11.12102716 21.22627297 -13.9765625 17.4621582 C-15.34458813 12.67406849 -15.18696442 9.34453067 -12.7890625 4.9621582 C-8.8876662 0.16901418 -5.80356809 -0.01971345 0 0 Z " fill="#000000" transform="translate(1450.6015625,28.725341796875)"/>
<path d="M0 0 C1.78166017 -0.00524814 3.56331757 -0.01152892 5.3449707 -0.01878357 C9.04961383 -0.02911131 12.75387087 -0.02472987 16.45849609 -0.01000977 C21.19754754 0.00728418 25.93539843 -0.01648653 30.67431641 -0.05149937 C34.34100315 -0.0734685 38.00740131 -0.07203508 41.6741333 -0.06373405 C43.42199025 -0.06291652 45.16986879 -0.06974195 46.91766357 -0.08450508 C49.35602029 -0.10197036 51.79219889 -0.08740151 54.23046875 -0.06469727 C54.94431229 -0.07638947 55.65815582 -0.08808167 56.39363098 -0.10012817 C62.01519418 0.00611295 64.31312269 1.73010021 68.125 5.56640625 C69.72299033 8.7623869 69.49273555 12.08963381 69.125 15.56640625 C67.33194559 19.81311406 65.22142873 21.5624162 61.125 23.56640625 C57.80187988 23.93821716 57.80187988 23.93821716 53.97070312 23.93530273 C52.9182843 23.94095245 52.9182843 23.94095245 51.84460449 23.94671631 C50.32614983 23.95313304 48.80765497 23.95283352 47.28919983 23.9465313 C44.87380469 23.93737703 42.45917887 23.94769728 40.04382324 23.96315002 C33.17831588 24.00310586 26.31286998 24.00446893 19.44726562 24.00219727 C15.23972918 24.00214571 11.03260348 24.02154465 6.82518005 24.05153084 C4.46719207 24.06222364 2.11003494 24.05030037 -0.2479248 24.03770447 C-11.52839789 24.06459935 -23.16310542 25.2209816 -32.16015625 32.734375 C-39.23412835 40.29176205 -42.11305238 49.01478546 -42.14624023 59.25830078 C-42.15408035 60.35969391 -42.15408035 60.35969391 -42.16207886 61.4833374 C-42.17225881 63.06506356 -42.17808869 64.64682266 -42.17996025 66.22858047 C-42.18364525 68.73423951 -42.20042724 71.23951029 -42.22071838 73.74508667 C-42.27594397 80.86432686 -42.30686004 87.98362177 -42.33129883 95.10302734 C-42.3471823 99.46841269 -42.37740029 103.83351733 -42.41606331 108.19875717 C-42.42769664 109.85808202 -42.43364351 111.51745704 -42.43374443 113.17682266 C-42.43393673 115.49594713 -42.4522177 117.81429684 -42.47436523 120.13330078 C-42.48197121 122.1101738 -42.48197121 122.1101738 -42.48973083 124.12698364 C-42.9926906 128.61706834 -44.46920226 131.20908429 -47.6875 134.31640625 C-50.55650679 135.9558387 -52.55974941 136.43639642 -55.875 136.56640625 C-60.38329101 135.11458372 -63.60856434 133.84745138 -65.875 129.56640625 C-66.85842461 125.67276029 -67.00700003 122.00200087 -67.02026367 117.99462891 C-67.02664352 116.6820108 -67.03302338 115.3693927 -67.03959656 114.01699829 C-67.04112674 112.58815549 -67.04223989 111.15931219 -67.04296875 109.73046875 C-67.04618735 108.24897226 -67.04955186 106.76747607 -67.05305481 105.28598022 C-67.0590382 102.17746242 -67.06089584 99.06897237 -67.06030273 95.96044922 C-67.06020189 92.01942842 -67.07377649 88.07859096 -67.09107494 84.1376133 C-67.10232441 81.0728172 -67.10421792 78.00806336 -67.10369301 74.94324875 C-67.10485673 73.49311067 -67.10918558 72.0429709 -67.11702538 70.59285355 C-67.21906371 49.74537515 -64.49479981 31.72419739 -49.75 15.94140625 C-35.4579486 2.26971101 -18.82560641 -0.06822507 0 0 Z " fill="#000000" transform="translate(96.875,28.43359375)"/>
<path d="M0 0 C3.61706278 1.90295271 5.68681024 4.06043071 7 8 C7.09848856 10.37929127 7.13552214 12.7612577 7.1418457 15.14257812 C7.14705734 16.22863846 7.14705734 16.22863846 7.15237427 17.3366394 C7.15972543 18.90970594 7.16507423 20.48278281 7.16866493 22.05586243 C7.17584773 24.55437537 7.1915311 27.05269387 7.21000671 29.55114746 C7.26236711 36.65548921 7.31036824 43.75972758 7.32592773 50.86425781 C7.33607333 55.21217578 7.36556886 59.55960821 7.40724754 63.90733337 C7.41947602 65.5561097 7.42469387 67.20495488 7.42244911 68.85377502 C7.41021768 80.77862972 8.16557823 92.9848228 17 102 C27.25990144 110.76755214 38.94126449 111.42985083 51.86933327 111.34955978 C54.32108599 111.3356449 56.77204541 111.34235873 59.22380066 111.35440063 C66.18530905 111.38513362 73.14662031 111.38042334 80.1081543 111.36035156 C84.38746932 111.34942275 88.66617889 111.36263494 92.94540977 111.39024734 C94.56765048 111.39567231 96.18995236 111.39166385 97.81214333 111.37784958 C100.07831593 111.35875271 102.34250311 111.37022243 104.60864258 111.38818359 C105.8945076 111.38579681 107.18037262 111.38341003 108.50520325 111.38095093 C113.12982553 112.20013108 114.73256101 113.67134529 118 117 C119.50650776 121.51952327 119.74563919 125.35959378 117.75 129.75 C115.8896125 132.14192678 114.61963762 133.47243818 112 135 C109.34873223 135.29005811 106.93443222 135.41035346 104.28491211 135.38818359 C103.12548096 135.39606903 103.12548096 135.39606903 101.94262695 135.40411377 C99.38732672 135.41731438 96.83265036 135.40856963 94.27734375 135.3984375 C92.49337139 135.40045966 90.70939984 135.40337229 88.9254303 135.40713501 C85.18205921 135.41155965 81.43890277 135.4051282 77.69555664 135.39111328 C72.92334899 135.374108 68.15165077 135.38380636 63.37946224 135.40183067 C59.69114947 135.4127391 56.00295473 135.40918854 52.31463814 135.4014473 C50.55697124 135.39946021 48.79929327 135.40185154 47.04163933 135.40888596 C28.98912226 135.46523188 13.77025176 132.32623126 0.25 119.34765625 C-15.43311876 102.98384657 -17.15683173 85.01202538 -17.16796875 63.296875 C-17.17119049 61.80478892 -17.17455521 60.31270313 -17.17805481 58.82061768 C-17.18399964 55.7143887 -17.18589922 52.60818738 -17.18530273 49.50195312 C-17.18520065 45.53565664 -17.19892096 41.56953731 -17.21607494 37.60328293 C-17.22721964 34.53024488 -17.22922129 31.4572496 -17.22869301 28.38419342 C-17.22986677 26.92186109 -17.23425432 25.45952743 -17.24202538 23.99721527 C-17.25188848 21.95211924 -17.24892416 19.90740769 -17.24291992 17.86230469 C-17.24434494 16.70301453 -17.24576996 15.54372437 -17.24723816 14.3493042 C-16.88810549 9.48417913 -16.1289276 5.37588051 -13 1.5625 C-8.64816327 -0.70408163 -4.80539842 -0.90580993 0 0 Z " fill="#000000" transform="translate(47,276)"/>
<path d="M0 0 C5.94 0 11.88 0 18 0 C18.33 39.93 18.66 79.86 19 121 C13.72 121 8.44 121 3 121 C2.34 118.03 1.68 115.06 1 112 C0.525625 112.721875 0.05125 113.44375 -0.4375 114.1875 C-5.06932014 119.27120503 -11.4905682 122.67874263 -18.37109375 123.30859375 C-28.69728001 123.75705841 -36.71379124 122.32707588 -44.89453125 115.39453125 C-55.87337569 103.69302869 -56.56845912 89.01896811 -56.30859375 73.88671875 C-55.85223117 61.90956794 -51.96465432 51.47109614 -43.015625 43.15625 C-36.35493587 37.88965859 -30.12578272 35.42937078 -21.6875 35.5 C-20.57362915 35.50314209 -20.57362915 35.50314209 -19.43725586 35.50634766 C-12.1963257 35.7129385 -6.19592368 37.80407632 -1 43 C-0.67 28.81 -0.34 14.62 0 0 Z M-32 58 C-38.02718028 67.56396315 -39.32376534 78.5484279 -37.3125 89.5625 C-35.53944928 96.60475778 -32.26043251 103.04604262 -26 107 C-21.14634359 108.61788547 -15.84366871 108.93894722 -10.9296875 107.31640625 C-5.63625861 104.55511542 -3.00919718 100.62704794 -0.91552734 95.17700195 C0.60679941 89.89432513 0.36887128 84.65125369 0.375 79.1875 C0.41173828 77.48110352 0.41173828 77.48110352 0.44921875 75.74023438 C0.47539591 68.17939785 -0.18228788 61.27372579 -5.41235352 55.41894531 C-9.02035965 52.2100319 -12.60783264 50.31475886 -17.375 49.6875 C-23.62931744 50.4320616 -28.05313616 53.19976019 -32 58 Z " fill="#000000" transform="translate(307,192)"/>
<path d="M0 0 C5.94 0 11.88 0 18 0 C18.33 15.18 18.66 30.36 19 46 C20.65 44.35 22.3 42.7 24 41 C30.92676849 36.15126206 38.69468479 34.21513081 47.125 35.5 C53.97933 37.22175539 59.7998856 40.78603012 63.875 46.625 C68.92445278 56.14304015 69.42848023 66.29820531 69.29296875 76.859375 C69.28872391 78.12976624 69.28447906 79.40015747 69.28010559 80.70904541 C69.26627912 84.04316306 69.23945564 87.3766316 69.20599365 90.71057129 C69.17498692 94.12990797 69.16153575 97.54931245 69.14648438 100.96875 C69.11360292 107.6460313 69.06191883 114.32292739 69 121 C63.06 121 57.12 121 51 121 C50.970271 118.81443481 50.970271 118.81443481 50.93994141 116.5847168 C50.86340252 111.13696102 50.77476228 105.68945566 50.68261719 100.24194336 C50.64452579 97.89205906 50.60963974 95.54212038 50.578125 93.19213867 C50.53204079 89.79846874 50.47412076 86.40516681 50.4140625 83.01171875 C50.40251129 81.97480392 50.39096008 80.9378891 50.37905884 79.86955261 C50.35551604 66.61097433 50.35551604 66.61097433 45 55 C41.17968324 52.4235073 37.73683403 51.39472454 33.08984375 51.58203125 C28.02754977 52.59449005 24.12794989 55.50819531 21.0625 59.5625 C19.29878657 63.60866611 18.86543572 67.09571803 18.79467773 71.50292969 C18.77473251 72.60376892 18.75478729 73.70460815 18.73423767 74.83880615 C18.70916893 76.61242523 18.70916893 76.61242523 18.68359375 78.421875 C18.66281265 79.63699768 18.64203156 80.85212036 18.62062073 82.10406494 C18.55523172 85.98598573 18.49628949 89.8679742 18.4375 93.75 C18.39430468 96.38151742 18.35069006 99.01302799 18.30664062 101.64453125 C18.19956113 108.09628479 18.09826341 114.54810641 18 121 C12.06 121 6.12 121 0 121 C0 81.07 0 41.14 0 0 Z " fill="#000000" transform="translate(1231,192)"/>
<path d="M0 0 C1.0209375 0.61681641 1.0209375 0.61681641 2.0625 1.24609375 C3.114375 1.84744141 3.114375 1.84744141 4.1875 2.4609375 C12.69462413 8.01956974 17.01560417 16.68979697 19.47583008 26.28686523 C20.42926788 31.09611183 20.55186363 35.7927707 20.5 40.68359375 C20.49242676 41.68986816 20.48485352 42.69614258 20.47705078 43.73291016 C20.19257223 56.5635156 16.3487192 67.47414639 6.9375 76.49609375 C-3.49573135 84.58071891 -15.18476173 85.8564595 -27.9375 84.24609375 C-36.89949852 82.1967965 -43.34754744 77.47408568 -48.9375 70.24609375 C-57.34071691 56.75563523 -57.95108331 40.73267126 -55.25 25.32421875 C-51.98340388 14.81666789 -45.89180735 6.44534004 -36.4921875 0.76953125 C-25.89563661 -4.51398577 -10.78699662 -5.41222573 0 0 Z M-31.625 17.93359375 C-37.45172596 25.33409778 -38.7166796 36.11856128 -37.9375 45.24609375 C-36.12480658 55.48248013 -33.44952835 62.95459454 -24.9375 69.24609375 C-21.22545513 71.10211619 -16.9887695 70.69484976 -12.9375 70.24609375 C-4.79015083 66.17241916 -1.73129353 59.50716744 1.0625 51.24609375 C3.60369348 40.8695537 2.22809483 29.1552041 -2.8125 19.74609375 C-7.87173734 13.49489483 -7.87173734 13.49489483 -15.20703125 11.0078125 C-22.7724459 10.78700931 -26.21929545 12.5278892 -31.625 17.93359375 Z " fill="#000000" transform="translate(1371.9375,230.75390625)"/>
<path d="M0 0 C1.0209375 0.61681641 1.0209375 0.61681641 2.0625 1.24609375 C3.114375 1.84744141 3.114375 1.84744141 4.1875 2.4609375 C12.69462413 8.01956974 17.01560417 16.68979697 19.47583008 26.28686523 C20.42926788 31.09611183 20.55186363 35.7927707 20.5 40.68359375 C20.49242676 41.68986816 20.48485352 42.69614258 20.47705078 43.73291016 C20.19257223 56.5635156 16.3487192 67.47414639 6.9375 76.49609375 C-3.49573135 84.58071891 -15.18476173 85.8564595 -27.9375 84.24609375 C-36.89949852 82.1967965 -43.34754744 77.47408568 -48.9375 70.24609375 C-57.34071691 56.75563523 -57.95108331 40.73267126 -55.25 25.32421875 C-51.98340388 14.81666789 -45.89180735 6.44534004 -36.4921875 0.76953125 C-25.89563661 -4.51398577 -10.78699662 -5.41222573 0 0 Z M-31.625 17.93359375 C-37.45172596 25.33409778 -38.7166796 36.11856128 -37.9375 45.24609375 C-36.12480658 55.48248013 -33.44952835 62.95459454 -24.9375 69.24609375 C-21.22545513 71.10211619 -16.9887695 70.69484976 -12.9375 70.24609375 C-4.79015083 66.17241916 -1.73129353 59.50716744 1.0625 51.24609375 C3.60369348 40.8695537 2.22809483 29.1552041 -2.8125 19.74609375 C-7.87173734 13.49489483 -7.87173734 13.49489483 -15.20703125 11.0078125 C-22.7724459 10.78700931 -26.21929545 12.5278892 -31.625 17.93359375 Z " fill="#000000" transform="translate(492.9375,230.75390625)"/>
<path d="M0 0 C11.16796324 11.66274642 10.1015625 24.39006028 10.1015625 40.24609375 C-7.3884375 40.24609375 -24.8784375 40.24609375 -42.8984375 40.24609375 C-39.79714734 53.01956088 -39.79714734 53.01956088 -31.3984375 61.55859375 C-20.32375734 66.89817169 -7.28037415 64.4706559 4.1015625 61.24609375 C6.39769006 70.65611653 6.39769006 70.65611653 6.1015625 75.24609375 C4.70707141 75.72915275 3.31089543 76.20734892 1.9140625 76.68359375 C1.13675781 76.95042969 0.35945312 77.21726562 -0.44140625 77.4921875 C-11.85406673 80.99400542 -28.76386856 81.64185353 -39.68359375 76.5625 C-50.24438439 70.28562796 -55.89428114 62.81659594 -59.29199219 50.99584961 C-60.3251767 46.31116477 -60.38679812 41.71489249 -60.3359375 36.93359375 C-60.32763916 35.92466064 -60.31934082 34.91572754 -60.31079102 33.8762207 C-60.00923174 20.52927134 -56.3750331 10.41039508 -47.2421875 0.4375 C-34.36749904 -11.73879734 -12.88688497 -11.90578468 0 0 Z M-37.4765625 12.04296875 C-41.21752673 17.41791736 -41.0817472 19.89588103 -41.8984375 27.24609375 C-30.3484375 27.24609375 -18.7984375 27.24609375 -6.8984375 27.24609375 C-7.79187599 18.31170881 -8.59435434 13.17040487 -15.0234375 7.30859375 C-23.36552814 2.58140905 -31.47654614 5.21126695 -37.4765625 12.04296875 Z " fill="#000000" transform="translate(980.8984375,235.75390625)"/>
<path d="M0 0 C11.16796324 11.66274642 10.1015625 24.39006028 10.1015625 40.24609375 C-7.3884375 40.24609375 -24.8784375 40.24609375 -42.8984375 40.24609375 C-39.79714734 53.01956088 -39.79714734 53.01956088 -31.3984375 61.55859375 C-20.32375734 66.89817169 -7.28037415 64.4706559 4.1015625 61.24609375 C6.39769006 70.65611653 6.39769006 70.65611653 6.1015625 75.24609375 C4.70707141 75.72915275 3.31089543 76.20734892 1.9140625 76.68359375 C1.13675781 76.95042969 0.35945312 77.21726562 -0.44140625 77.4921875 C-11.85406673 80.99400542 -28.76386856 81.64185353 -39.68359375 76.5625 C-50.24438439 70.28562796 -55.89428114 62.81659594 -59.29199219 50.99584961 C-60.3251767 46.31116477 -60.38679812 41.71489249 -60.3359375 36.93359375 C-60.32763916 35.92466064 -60.31934082 34.91572754 -60.31079102 33.8762207 C-60.00923174 20.52927134 -56.3750331 10.41039508 -47.2421875 0.4375 C-34.36749904 -11.73879734 -12.88688497 -11.90578468 0 0 Z M-37.4765625 12.04296875 C-41.21752673 17.41791736 -41.0817472 19.89588103 -41.8984375 27.24609375 C-30.3484375 27.24609375 -18.7984375 27.24609375 -6.8984375 27.24609375 C-7.79187599 18.31170881 -8.59435434 13.17040487 -15.0234375 7.30859375 C-23.36552814 2.58140905 -31.47654614 5.21126695 -37.4765625 12.04296875 Z " fill="#000000" transform="translate(899.8984375,235.75390625)"/>
<path d="M0 0 C6.76644304 6.4984651 9.62543295 14.74526164 10.14677429 23.97813416 C10.20309586 27.54701205 10.19758314 31.11048935 10.16796875 34.6796875 C10.16513885 35.97651962 10.16230896 37.27335175 10.15939331 38.60948181 C10.15182246 42.02729253 10.13223184 45.44492841 10.10998535 48.8626709 C10.08938429 52.36219926 10.08036136 55.86175637 10.0703125 59.36132812 C10.04897845 66.20580745 10.01385124 73.05014291 9.97265625 79.89453125 C4.03265625 79.89453125 -1.90734375 79.89453125 -8.02734375 79.89453125 C-8.05707275 77.70896606 -8.05707275 77.70896606 -8.08740234 75.47924805 C-8.16394123 70.03149227 -8.25258147 64.58398691 -8.34472656 59.13647461 C-8.38281796 56.78659031 -8.41770401 54.43665163 -8.44921875 52.08666992 C-8.49530296 48.69299999 -8.55322299 45.29969806 -8.61328125 41.90625 C-8.62483246 40.86933517 -8.63638367 39.83242035 -8.64828491 38.76408386 C-8.81103254 24.84879549 -8.81103254 24.84879549 -15.02734375 12.89453125 C-18.95008433 10.5620909 -22.53350597 10.4375308 -27.02734375 10.89453125 C-31.68061939 12.34976914 -34.96853883 14.18798805 -37.46484375 18.45703125 C-39.38742548 22.68671106 -40.1590176 25.68616997 -40.23266602 30.28393555 C-40.25261124 31.38485031 -40.27255646 32.48576508 -40.29310608 33.62004089 C-40.30981857 34.8076149 -40.32653107 35.9951889 -40.34375 37.21875 C-40.3645311 38.43528763 -40.38531219 39.65182526 -40.40672302 40.90522766 C-40.47219092 44.79743721 -40.5310909 48.6897151 -40.58984375 52.58203125 C-40.63303157 55.21810607 -40.67664595 57.85417394 -40.72070312 60.49023438 C-40.82786957 66.95826301 -40.92914501 73.4263605 -41.02734375 79.89453125 C-46.96734375 79.89453125 -52.90734375 79.89453125 -59.02734375 79.89453125 C-59.159376 71.87813689 -59.2900492 63.86172362 -59.41849518 55.84527111 C-59.47822391 52.12071067 -59.53848983 48.39616073 -59.60009766 44.67163086 C-59.86317344 28.74490866 -60.09438038 12.82411001 -60.02734375 -3.10546875 C-54.74734375 -3.10546875 -49.46734375 -3.10546875 -44.02734375 -3.10546875 C-43.36734375 -0.13546875 -42.70734375 2.83453125 -42.02734375 5.89453125 C-41.55296875 5.17265625 -41.07859375 4.45078125 -40.58984375 3.70703125 C-30.18843512 -7.70914895 -12.34208754 -9.20616693 0 0 Z " fill="#000000" transform="translate(1067.02734375,233.10546875)"/>
<path d="M0 0 C0 6.93 0 13.86 0 21 C6.6 21 13.2 21 20 21 C20 25.62 20 30.24 20 35 C13.4 35 6.8 35 0 35 C0.09751616 40.63797352 0.20060227 46.27530874 0.31738281 51.9128418 C0.35540174 53.82619256 0.39029908 55.73960823 0.421875 57.65307617 C0.00201433 72.61369839 0.00201433 72.61369839 3 87 C6.39513842 90.15620501 8.65705259 90.33727002 13.25 90.1875 C15.1475 90.125625 17.045 90.06375 19 90 C19 94.95 19 99.9 19 105 C14.91569075 106.36143642 11.09205321 106.30318446 6.8125 106.375 C5.5740332 106.43107422 5.5740332 106.43107422 4.31054688 106.48828125 C-3.24383618 106.59543562 -7.77495359 103.87639275 -13.3125 98.9375 C-18.00231987 90.77373948 -18.43406749 81.31204114 -18.29296875 72.109375 C-18.28872391 71.03874817 -18.28447906 69.96812134 -18.28010559 68.86505127 C-18.26350325 65.49309602 -18.2258869 62.12177023 -18.1875 58.75 C-18.17242929 56.44401913 -18.1587451 54.13802877 -18.14648438 51.83203125 C-18.11366042 46.22111689 -18.06200859 40.61066462 -18 35 C-21.63 35 -25.26 35 -29 35 C-29 30.38 -29 25.76 -29 21 C-25.37 21 -21.74 21 -18 21 C-18 15.72 -18 10.44 -18 5 C-15.37605694 4.16320723 -12.75095616 3.33043058 -10.125 2.5 C-9.37863281 2.26152344 -8.63226562 2.02304688 -7.86328125 1.77734375 C-2.2265625 0 -2.2265625 0 0 0 Z " fill="#000000" transform="translate(1431,209)"/>
<path d="M0 0 C0 6.93 0 13.86 0 21 C6.6 21 13.2 21 20 21 C20 25.62 20 30.24 20 35 C13.4 35 6.8 35 0 35 C0.09751616 40.63797352 0.20060227 46.27530874 0.31738281 51.9128418 C0.35540174 53.82619256 0.39029908 55.73960823 0.421875 57.65307617 C0.00201433 72.61369839 0.00201433 72.61369839 3 87 C6.39513842 90.15620501 8.65705259 90.33727002 13.25 90.1875 C15.1475 90.125625 17.045 90.06375 19 90 C19 94.95 19 99.9 19 105 C14.91569075 106.36143642 11.09205321 106.30318446 6.8125 106.375 C5.5740332 106.43107422 5.5740332 106.43107422 4.31054688 106.48828125 C-3.24383618 106.59543562 -7.77495359 103.87639275 -13.3125 98.9375 C-18.00231987 90.77373948 -18.43406749 81.31204114 -18.29296875 72.109375 C-18.28872391 71.03874817 -18.28447906 69.96812134 -18.28010559 68.86505127 C-18.26350325 65.49309602 -18.2258869 62.12177023 -18.1875 58.75 C-18.17242929 56.44401913 -18.1587451 54.13802877 -18.14648438 51.83203125 C-18.11366042 46.22111689 -18.06200859 40.61066462 -18 35 C-21.63 35 -25.26 35 -29 35 C-29 30.38 -29 25.76 -29 21 C-25.37 21 -21.74 21 -18 21 C-18 15.72 -18 10.44 -18 5 C-15.37605694 4.16320723 -12.75095616 3.33043058 -10.125 2.5 C-9.37863281 2.26152344 -8.63226563 2.02304688 -7.86328125 1.77734375 C-2.2265625 0 -2.2265625 0 0 0 Z " fill="#000000" transform="translate(408,209)"/>
<path d="M0 0 C0.90814453 -0.020625 1.81628906 -0.04125 2.75195312 -0.0625 C8.97760919 -0.09815157 14.04702806 0.90021798 19.8125 3.25 C19.3645266 5.56452922 18.90383539 7.87660039 18.4375 10.1875 C18.05464844 12.11916016 18.05464844 12.11916016 17.6640625 14.08984375 C17.38304687 15.13269531 17.10203125 16.17554688 16.8125 17.25 C14.8125 18.25 14.8125 18.25 12.67578125 17.69140625 C11.83402344 17.40136719 10.99226562 17.11132812 10.125 16.8125 C2.35156927 14.39583171 -3.80851172 14.91060385 -11.1875 18.25 C-18.09800663 22.81354211 -21.17617426 29.27073564 -22.8671875 37.203125 C-24.28751883 46.27938863 -22.49096433 55.16033977 -18.08984375 63.2734375 C-14.16968768 68.50917138 -8.53302911 70.71168184 -2.375 72.125 C4.09622515 72.68882952 10.58647274 70.85014719 16.8125 69.25 C18.07555335 74.32476794 19.08286084 78.97796354 18.8125 84.25 C11.70330984 86.78004666 5.34106558 87.74549315 -2.1875 87.6875 C-3.10789062 87.70748047 -4.02828125 87.72746094 -4.9765625 87.74804688 C-14.97101995 87.74100852 -23.89899801 84.28027435 -31.1875 77.34765625 C-42.01955441 66.01780522 -42.65059592 53.86099706 -42.46875 38.9296875 C-42.26751112 32.74561657 -41.21526631 27.68216897 -38.1875 22.25 C-37.81367187 21.53199219 -37.43984375 20.81398437 -37.0546875 20.07421875 C-31.50438194 10.31523779 -23.12841546 3.91162212 -12.30615234 0.68994141 C-8.25252642 -0.15180023 -4.12542948 0.02293498 0 0 Z " fill="#000000" transform="translate(756.1875,227.75)"/>
<path d="M0 0 C0 5.94 0 11.88 0 18 C-2.97 18 -5.94 18 -9 18 C-13.47817758 19.19511804 -16.39686936 21.28576635 -19.375 24.8125 C-23.07144323 32.06321557 -23.32649048 38.60352031 -23.4140625 46.62109375 C-23.43342865 47.72099136 -23.4527948 48.82088898 -23.4727478 49.95411682 C-23.53226908 53.44850033 -23.57881927 56.94291726 -23.625 60.4375 C-23.66320501 62.81446706 -23.7022582 65.19142065 -23.7421875 67.56835938 C-23.83794815 73.37879615 -23.92208053 79.1892977 -24 85 C-29.94 85 -35.88 85 -42 85 C-42.13240988 77.42657733 -42.26313465 69.8531288 -42.39115143 62.27963066 C-42.45070159 58.76029579 -42.51089881 55.24097486 -42.57275391 51.72167969 C-42.86356823 35.14695398 -43.07893179 18.57786943 -43 2 C-37.72 2 -32.44 2 -27 2 C-26.77213542 4.31119792 -26.54427083 6.62239583 -26.31640625 8.93359375 C-26.21069185 10.98662025 -26.21069185 10.98662025 -25 12 C-24.29875 10.9275 -23.5975 9.855 -22.875 8.75 C-18.70953943 2.99049447 -14.04011628 0.71303839 -7.24609375 -0.80078125 C-5 -1 -5 -1 0 0 Z " fill="#000000" transform="translate(832,228)"/>
<path d="M0 0 C0 5.94 0 11.88 0 18 C-2.97 18 -5.94 18 -9 18 C-13.47817758 19.19511804 -16.39686936 21.28576635 -19.375 24.8125 C-23.07144323 32.06321557 -23.32649048 38.60352031 -23.4140625 46.62109375 C-23.43342865 47.72099136 -23.4527948 48.82088898 -23.4727478 49.95411682 C-23.53226908 53.44850033 -23.57881927 56.94291726 -23.625 60.4375 C-23.66320501 62.81446706 -23.7022582 65.19142065 -23.7421875 67.56835938 C-23.83794815 73.37879615 -23.92208053 79.1892977 -24 85 C-29.94 85 -35.88 85 -42 85 C-42.13240988 77.42657733 -42.26313465 69.8531288 -42.39115143 62.27963066 C-42.45070159 58.76029579 -42.51089881 55.24097486 -42.57275391 51.72167969 C-42.86356823 35.14695398 -43.07893179 18.57786943 -43 2 C-37.72 2 -32.44 2 -27 2 C-26.77213542 4.31119792 -26.54427083 6.62239583 -26.31640625 8.93359375 C-26.21069185 10.98662025 -26.21069185 10.98662025 -25 12 C-24.29875 10.9275 -23.5975 9.855 -22.875 8.75 C-18.70953943 2.99049447 -14.04011628 0.71303839 -7.24609375 -0.80078125 C-5 -1 -5 -1 0 0 Z " fill="#000000" transform="translate(572,228)"/>
<path d="M0 0 C5.94 0 11.88 0 18 0 C18 27.39 18 54.78 18 83 C12.06 83 6.12 83 0 83 C0 55.61 0 28.22 0 0 Z " fill="#000000" transform="translate(347,230)"/>
<path d="M0 0 C3.125 1.875 3.125 1.875 5 5 C5.68394713 8.47673126 5.7296881 11.52828081 5 15 C2.80977082 17.82424288 1.16982793 19.41508603 -2 21 C-6.19946671 21.04053539 -9.87265006 20.67640997 -13.5 18.5 C-15.72611828 14.78980287 -16.33552115 11.3095828 -16 7 C-12.16032346 -0.41454781 -7.89800976 -1.04149579 0 0 Z " fill="#000000" transform="translate(361,197)"/>
</svg>
